<mxfile host="app.diagrams.net" agent="Mozilla/5.0 (Windows NT 10.0; Win64; x64) AppleWebKit/537.36 (KHTML, like Gecko) Chrome/139.0.0.0 Safari/537.36" version="28.2.0">
  <diagram name="Page-1" id="9SoPCGcEWCRsUBCp7dko">
    <mxGraphModel dx="1472" dy="792" grid="1" gridSize="10" guides="1" tooltips="1" connect="1" arrows="1" fold="1" page="1" pageScale="1" pageWidth="850" pageHeight="1100" math="0" shadow="0">
      <root>
        <mxCell id="0" />
        <mxCell id="1" parent="0" />
        <mxCell id="JEtd2y-85JAhfPTP1Umt-56" style="edgeStyle=orthogonalEdgeStyle;rounded=0;orthogonalLoop=1;jettySize=auto;html=1;exitX=0;exitY=0.5;exitDx=0;exitDy=0;entryX=1;entryY=0.25;entryDx=0;entryDy=0;" edge="1" parent="1" source="JEtd2y-85JAhfPTP1Umt-10" target="JEtd2y-85JAhfPTP1Umt-38">
          <mxGeometry relative="1" as="geometry" />
        </mxCell>
        <mxCell id="JEtd2y-85JAhfPTP1Umt-57" style="edgeStyle=orthogonalEdgeStyle;rounded=0;orthogonalLoop=1;jettySize=auto;html=1;exitX=0;exitY=0.25;exitDx=0;exitDy=0;entryX=1;entryY=0.5;entryDx=0;entryDy=0;" edge="1" parent="1" source="JEtd2y-85JAhfPTP1Umt-10" target="JEtd2y-85JAhfPTP1Umt-25">
          <mxGeometry relative="1" as="geometry" />
        </mxCell>
        <mxCell id="JEtd2y-85JAhfPTP1Umt-59" style="edgeStyle=orthogonalEdgeStyle;rounded=0;orthogonalLoop=1;jettySize=auto;html=1;exitX=0.25;exitY=0;exitDx=0;exitDy=0;entryX=1;entryY=0.5;entryDx=0;entryDy=0;" edge="1" parent="1" source="JEtd2y-85JAhfPTP1Umt-10" target="JEtd2y-85JAhfPTP1Umt-18">
          <mxGeometry relative="1" as="geometry" />
        </mxCell>
        <mxCell id="JEtd2y-85JAhfPTP1Umt-60" style="edgeStyle=orthogonalEdgeStyle;rounded=0;orthogonalLoop=1;jettySize=auto;html=1;exitX=0.5;exitY=0;exitDx=0;exitDy=0;entryX=1;entryY=0.5;entryDx=0;entryDy=0;" edge="1" parent="1" source="JEtd2y-85JAhfPTP1Umt-10" target="JEtd2y-85JAhfPTP1Umt-20">
          <mxGeometry relative="1" as="geometry" />
        </mxCell>
        <mxCell id="JEtd2y-85JAhfPTP1Umt-61" style="edgeStyle=orthogonalEdgeStyle;rounded=0;orthogonalLoop=1;jettySize=auto;html=1;exitX=0.75;exitY=0;exitDx=0;exitDy=0;entryX=1;entryY=0.75;entryDx=0;entryDy=0;" edge="1" parent="1" source="JEtd2y-85JAhfPTP1Umt-10" target="JEtd2y-85JAhfPTP1Umt-27">
          <mxGeometry relative="1" as="geometry" />
        </mxCell>
        <mxCell id="JEtd2y-85JAhfPTP1Umt-62" style="edgeStyle=orthogonalEdgeStyle;rounded=0;orthogonalLoop=1;jettySize=auto;html=1;exitX=1;exitY=0;exitDx=0;exitDy=0;entryX=1;entryY=0.25;entryDx=0;entryDy=0;" edge="1" parent="1" source="JEtd2y-85JAhfPTP1Umt-10" target="JEtd2y-85JAhfPTP1Umt-22">
          <mxGeometry relative="1" as="geometry" />
        </mxCell>
        <mxCell id="JEtd2y-85JAhfPTP1Umt-63" style="edgeStyle=orthogonalEdgeStyle;rounded=0;orthogonalLoop=1;jettySize=auto;html=1;exitX=1;exitY=0.25;exitDx=0;exitDy=0;entryX=1;entryY=0.75;entryDx=0;entryDy=0;" edge="1" parent="1" source="JEtd2y-85JAhfPTP1Umt-10" target="JEtd2y-85JAhfPTP1Umt-34">
          <mxGeometry relative="1" as="geometry" />
        </mxCell>
        <mxCell id="JEtd2y-85JAhfPTP1Umt-65" style="edgeStyle=orthogonalEdgeStyle;rounded=0;orthogonalLoop=1;jettySize=auto;html=1;exitX=0;exitY=0.25;exitDx=0;exitDy=0;entryX=1;entryY=0;entryDx=0;entryDy=0;" edge="1" parent="1" source="JEtd2y-85JAhfPTP1Umt-10" target="JEtd2y-85JAhfPTP1Umt-37">
          <mxGeometry relative="1" as="geometry">
            <Array as="points">
              <mxPoint x="1530" y="1260" />
              <mxPoint x="1520" y="1260" />
              <mxPoint x="1520" y="1010" />
              <mxPoint x="1420" y="1010" />
              <mxPoint x="1420" y="1030" />
            </Array>
          </mxGeometry>
        </mxCell>
        <mxCell id="JEtd2y-85JAhfPTP1Umt-66" style="edgeStyle=orthogonalEdgeStyle;rounded=0;orthogonalLoop=1;jettySize=auto;html=1;exitX=1;exitY=0.75;exitDx=0;exitDy=0;entryX=1;entryY=0.5;entryDx=0;entryDy=0;" edge="1" parent="1" source="JEtd2y-85JAhfPTP1Umt-10" target="JEtd2y-85JAhfPTP1Umt-36">
          <mxGeometry relative="1" as="geometry">
            <Array as="points">
              <mxPoint x="1690" y="1325" />
              <mxPoint x="1690" y="240" />
            </Array>
          </mxGeometry>
        </mxCell>
        <mxCell id="JEtd2y-85JAhfPTP1Umt-94" style="edgeStyle=orthogonalEdgeStyle;rounded=0;orthogonalLoop=1;jettySize=auto;html=1;exitX=0.75;exitY=1;exitDx=0;exitDy=0;entryX=0.25;entryY=1;entryDx=0;entryDy=0;" edge="1" parent="1" source="JEtd2y-85JAhfPTP1Umt-10" target="JEtd2y-85JAhfPTP1Umt-46">
          <mxGeometry relative="1" as="geometry">
            <Array as="points">
              <mxPoint x="1620" y="1530" />
              <mxPoint x="990" y="1530" />
            </Array>
          </mxGeometry>
        </mxCell>
        <mxCell id="JEtd2y-85JAhfPTP1Umt-10" value="MCAL Drivers" style="rounded=0;whiteSpace=wrap;html=1;" vertex="1" parent="1">
          <mxGeometry x="1530" y="1280" width="120" height="60" as="geometry" />
        </mxCell>
        <mxCell id="JEtd2y-85JAhfPTP1Umt-12" value="&#xa;DIO&#xa;&#xa;" style="rounded=0;whiteSpace=wrap;html=1;" vertex="1" parent="1">
          <mxGeometry x="1110" y="885" width="290" height="30" as="geometry" />
        </mxCell>
        <mxCell id="JEtd2y-85JAhfPTP1Umt-15" style="edgeStyle=orthogonalEdgeStyle;rounded=0;orthogonalLoop=1;jettySize=auto;html=1;exitX=0.5;exitY=1;exitDx=0;exitDy=0;" edge="1" parent="1" source="JEtd2y-85JAhfPTP1Umt-12" target="JEtd2y-85JAhfPTP1Umt-12">
          <mxGeometry relative="1" as="geometry" />
        </mxCell>
        <mxCell id="JEtd2y-85JAhfPTP1Umt-18" value="&lt;font style=&quot;font-size: 9px;&quot;&gt;void DIO_InitPin&amp;nbsp; &amp;nbsp; &amp;nbsp; (u8 PORT_Name , u8&amp;nbsp; PIN_Number , u8&amp;nbsp; Mode) ;&lt;br&gt;void DIO_SetPinValue&amp;nbsp; (u8&amp;nbsp; PORT_Name , u8&amp;nbsp; PIN_Number , u8&amp;nbsp; Val ) ;&lt;br&gt;void DIO_TogPinValue&amp;nbsp; (u8&amp;nbsp; PORT_Name , u8&amp;nbsp; PIN_Number&amp;nbsp; &amp;nbsp; &amp;nbsp; &amp;nbsp; &amp;nbsp; ) ;&lt;br&gt;u8&amp;nbsp; &amp;nbsp; DIO_ReadPinValue (u8&amp;nbsp; PORT_Name , u8&amp;nbsp; PIN_Number&amp;nbsp; &amp;nbsp; &amp;nbsp; &amp;nbsp; &amp;nbsp; ) ;&lt;/font&gt;" style="rounded=0;whiteSpace=wrap;html=1;align=left;" vertex="1" parent="1">
          <mxGeometry x="1110" y="910" width="290" height="60" as="geometry" />
        </mxCell>
        <mxCell id="JEtd2y-85JAhfPTP1Umt-20" value="&lt;br&gt;EXTI" style="rounded=0;whiteSpace=wrap;html=1;" vertex="1" parent="1">
          <mxGeometry x="1190" y="770" width="210" height="30" as="geometry" />
        </mxCell>
        <mxCell id="JEtd2y-85JAhfPTP1Umt-21" value="&lt;div&gt;&lt;font size=&quot;1&quot;&gt;void EXTI0_Init (u8 Sense) ;&lt;/font&gt;&lt;/div&gt;&lt;div&gt;&lt;font size=&quot;1&quot;&gt;void EXTI0_CallBack (void (*fptr)(void)) ;&lt;/font&gt;&lt;/div&gt;" style="rounded=0;whiteSpace=wrap;html=1;align=left;" vertex="1" parent="1">
          <mxGeometry x="1190" y="800" width="210" height="60" as="geometry" />
        </mxCell>
        <mxCell id="JEtd2y-85JAhfPTP1Umt-22" value="&lt;div&gt;&lt;font size=&quot;1&quot;&gt;void ADC_Init (u8 Prescaller , u8 RefVolt) ;&lt;/font&gt;&lt;/div&gt;&lt;div&gt;&lt;font size=&quot;1&quot;&gt;void ADC_StartConvrsion (u8 ChannelNum) ;&lt;/font&gt;&lt;/div&gt;&lt;div&gt;&lt;font size=&quot;1&quot;&gt;u16 ADC_ReadDataUsingPolling (void) ;&lt;/font&gt;&lt;/div&gt;&lt;div&gt;&lt;font size=&quot;1&quot;&gt;u16 ADC_ReadDataUsingInterrupt (void) ;&lt;/font&gt;&lt;/div&gt;&lt;div&gt;&lt;font size=&quot;1&quot;&gt;void ADC_CallBack (void (*fptr)) ;&lt;/font&gt;&lt;/div&gt;" style="rounded=0;whiteSpace=wrap;html=1;align=left;" vertex="1" parent="1">
          <mxGeometry x="1170" y="550" width="230" height="70" as="geometry" />
        </mxCell>
        <mxCell id="JEtd2y-85JAhfPTP1Umt-23" value="&lt;div&gt;&lt;font size=&quot;1&quot;&gt;void EEPROM_Write (u16 Address , u8 Data) ;&lt;/font&gt;&lt;/div&gt;&lt;div&gt;&lt;font size=&quot;1&quot;&gt;u8 EEPROM_Read (u16 Address) ;&lt;/font&gt;&lt;/div&gt;" style="rounded=0;whiteSpace=wrap;html=1;align=left;" vertex="1" parent="1">
          <mxGeometry x="1180" y="680" width="230" height="50" as="geometry" />
        </mxCell>
        <mxCell id="JEtd2y-85JAhfPTP1Umt-24" value="&lt;div&gt;&lt;font size=&quot;1&quot;&gt;void Timer0_Init (u32 Prescaller , u8 Mode)&amp;nbsp; ;&lt;/font&gt;&lt;/div&gt;&lt;div&gt;&lt;font size=&quot;1&quot;&gt;void Timer0_SetDesiredTime (u32 Time , void (*fptr)(void)) ;&lt;/font&gt;&lt;/div&gt;&lt;div&gt;&lt;font size=&quot;1&quot;&gt;void Timer0_GeneratePWM (u8 CompareValue)&amp;nbsp;&lt;/font&gt;&lt;/div&gt;" style="rounded=0;whiteSpace=wrap;html=1;align=left;" vertex="1" parent="1">
          <mxGeometry x="1120" y="410" width="290" height="60" as="geometry" />
        </mxCell>
        <mxCell id="JEtd2y-85JAhfPTP1Umt-25" value="&lt;div&gt;&lt;font size=&quot;1&quot;&gt;void I2C_MasterInit (u32 SCL) ;&lt;/font&gt;&lt;/div&gt;&lt;div&gt;&lt;font size=&quot;1&quot;&gt;void I2C_SendStartCond (void) ;&lt;/font&gt;&lt;/div&gt;&lt;div&gt;&lt;font size=&quot;1&quot;&gt;void I2C_SendAddress (u8 Address) ;&lt;/font&gt;&lt;/div&gt;&lt;div&gt;&lt;font size=&quot;1&quot;&gt;void I2C_SendData (u8 Data) ;&lt;/font&gt;&lt;/div&gt;&lt;div&gt;&lt;font size=&quot;1&quot;&gt;void I2C_SetOwnAddress (u8 Address) ;&lt;/font&gt;&lt;/div&gt;&lt;div&gt;&lt;font size=&quot;1&quot;&gt;void I2C_SendStopCondiontion (void)&amp;nbsp; ;&lt;/font&gt;&lt;/div&gt;&lt;div&gt;&lt;font size=&quot;1&quot;&gt;u8 I2C_SlaveRead (void) ;&lt;/font&gt;&lt;/div&gt;" style="rounded=0;whiteSpace=wrap;html=1;align=left;" vertex="1" parent="1">
          <mxGeometry x="1200" y="1130" width="200" height="120" as="geometry" />
        </mxCell>
        <mxCell id="JEtd2y-85JAhfPTP1Umt-26" value="&lt;div&gt;&lt;font size=&quot;1&quot;&gt;void Timer1_Init&amp;nbsp; &amp;nbsp; &amp;nbsp; &amp;nbsp; &amp;nbsp; &amp;nbsp;(u32 Prescaller , u8 Mode) ;&lt;/font&gt;&lt;/div&gt;&lt;div&gt;&lt;font size=&quot;1&quot;&gt;void Timer1_SetDesiredTime (u32 TimeInMicro , void (*fptr)(void)) ;&lt;/font&gt;&lt;/div&gt;&lt;div&gt;&lt;font size=&quot;1&quot;&gt;void Timer1_GeneratePWMA&amp;nbsp; &amp;nbsp; (u32 CompareVal) ;&lt;/font&gt;&lt;/div&gt;&lt;div&gt;&lt;font size=&quot;1&quot;&gt;void Timer1_GeneratePWMB&amp;nbsp; &amp;nbsp; (u32 CompareVal) ;&lt;/font&gt;&lt;/div&gt;&lt;div&gt;&lt;font size=&quot;1&quot;&gt;u32 Timer1_CaptureTonCounts (void) ;&lt;/font&gt;&lt;/div&gt;&lt;div&gt;&lt;font size=&quot;1&quot;&gt;u32 Timer1_CaptureToffCounts (void) ;&lt;/font&gt;&lt;/div&gt;" style="rounded=0;whiteSpace=wrap;html=1;align=left;" vertex="1" parent="1">
          <mxGeometry x="1110" y="250" width="300" height="90" as="geometry" />
        </mxCell>
        <mxCell id="JEtd2y-85JAhfPTP1Umt-27" value="EEPROM" style="rounded=0;whiteSpace=wrap;html=1;" vertex="1" parent="1">
          <mxGeometry x="1182.5" y="650" width="225" height="30" as="geometry" />
        </mxCell>
        <mxCell id="JEtd2y-85JAhfPTP1Umt-28" value="ADC" style="rounded=0;whiteSpace=wrap;html=1;" vertex="1" parent="1">
          <mxGeometry x="1170" y="520" width="230" height="30" as="geometry" />
        </mxCell>
        <mxCell id="JEtd2y-85JAhfPTP1Umt-34" value="TIMER0" style="rounded=0;whiteSpace=wrap;html=1;" vertex="1" parent="1">
          <mxGeometry x="1120" y="380" width="290" height="30" as="geometry" />
        </mxCell>
        <mxCell id="JEtd2y-85JAhfPTP1Umt-35" value="I2C" style="rounded=0;whiteSpace=wrap;html=1;" vertex="1" parent="1">
          <mxGeometry x="1200" y="1105" width="200" height="25" as="geometry" />
        </mxCell>
        <mxCell id="JEtd2y-85JAhfPTP1Umt-36" value="TIMER1" style="rounded=0;whiteSpace=wrap;html=1;" vertex="1" parent="1">
          <mxGeometry x="1110" y="225" width="300" height="30" as="geometry" />
        </mxCell>
        <mxCell id="JEtd2y-85JAhfPTP1Umt-37" value="&lt;div&gt;&lt;font size=&quot;1&quot;&gt;void SPI_MasterInit (u8 Prescaller) ;&lt;/font&gt;&lt;/div&gt;&lt;div&gt;&lt;font size=&quot;1&quot;&gt;void SPI_SlaveInit (void) ;&lt;/font&gt;&lt;/div&gt;&lt;div&gt;&lt;font size=&quot;1&quot;&gt;void SPI_Send&amp;nbsp; (u8 Data) ;&lt;/font&gt;&lt;/div&gt;&lt;div&gt;&lt;font size=&quot;1&quot;&gt;u8 SPI_Recive (void) ;&lt;/font&gt;&lt;/div&gt;" style="rounded=0;whiteSpace=wrap;html=1;align=left;" vertex="1" parent="1">
          <mxGeometry x="1180" y="1030" width="210" height="60" as="geometry" />
        </mxCell>
        <mxCell id="JEtd2y-85JAhfPTP1Umt-38" value="&lt;div&gt;&lt;font size=&quot;1&quot;&gt;void UART_Init (u32 BoadRate , u8 DataSize) ;&lt;/font&gt;&lt;/div&gt;&lt;div&gt;&lt;font size=&quot;1&quot;&gt;void UART_Tx&amp;nbsp; &amp;nbsp;(u8 Data) ;&lt;/font&gt;&lt;/div&gt;&lt;div&gt;&lt;font size=&quot;1&quot;&gt;void UART_TxStr (u8 str []) ;&lt;/font&gt;&lt;/div&gt;&lt;div&gt;&lt;font size=&quot;1&quot;&gt;u8 UART_RX&amp;nbsp; &amp;nbsp;(void) ;&lt;/font&gt;&lt;/div&gt;" style="rounded=0;whiteSpace=wrap;html=1;align=left;" vertex="1" parent="1">
          <mxGeometry x="1170" y="1300" width="230" height="60" as="geometry" />
        </mxCell>
        <mxCell id="JEtd2y-85JAhfPTP1Umt-40" value="UART" style="rounded=0;whiteSpace=wrap;html=1;" vertex="1" parent="1">
          <mxGeometry x="1170" y="1275" width="230" height="25" as="geometry" />
        </mxCell>
        <mxCell id="JEtd2y-85JAhfPTP1Umt-41" value="SPI" style="rounded=0;whiteSpace=wrap;html=1;" vertex="1" parent="1">
          <mxGeometry x="1180" y="1000" width="210" height="30" as="geometry" />
        </mxCell>
        <mxCell id="JEtd2y-85JAhfPTP1Umt-71" style="edgeStyle=orthogonalEdgeStyle;rounded=0;orthogonalLoop=1;jettySize=auto;html=1;exitX=0.5;exitY=0;exitDx=0;exitDy=0;entryX=1;entryY=0.25;entryDx=0;entryDy=0;" edge="1" parent="1" source="JEtd2y-85JAhfPTP1Umt-46" target="JEtd2y-85JAhfPTP1Umt-49">
          <mxGeometry relative="1" as="geometry" />
        </mxCell>
        <mxCell id="JEtd2y-85JAhfPTP1Umt-72" style="edgeStyle=orthogonalEdgeStyle;rounded=0;orthogonalLoop=1;jettySize=auto;html=1;exitX=1;exitY=0;exitDx=0;exitDy=0;entryX=1;entryY=0.25;entryDx=0;entryDy=0;" edge="1" parent="1" source="JEtd2y-85JAhfPTP1Umt-46" target="JEtd2y-85JAhfPTP1Umt-51">
          <mxGeometry relative="1" as="geometry" />
        </mxCell>
        <mxCell id="JEtd2y-85JAhfPTP1Umt-75" style="edgeStyle=orthogonalEdgeStyle;rounded=0;orthogonalLoop=1;jettySize=auto;html=1;exitX=0.25;exitY=0;exitDx=0;exitDy=0;entryX=0.75;entryY=0;entryDx=0;entryDy=0;" edge="1" parent="1" source="JEtd2y-85JAhfPTP1Umt-46" target="JEtd2y-85JAhfPTP1Umt-47">
          <mxGeometry relative="1" as="geometry" />
        </mxCell>
        <mxCell id="JEtd2y-85JAhfPTP1Umt-95" style="edgeStyle=orthogonalEdgeStyle;rounded=0;orthogonalLoop=1;jettySize=auto;html=1;exitX=0;exitY=1;exitDx=0;exitDy=0;entryX=0;entryY=1;entryDx=0;entryDy=0;" edge="1" parent="1" source="JEtd2y-85JAhfPTP1Umt-46" target="JEtd2y-85JAhfPTP1Umt-54">
          <mxGeometry relative="1" as="geometry">
            <Array as="points">
              <mxPoint x="960" y="1520" />
              <mxPoint x="490" y="1520" />
            </Array>
          </mxGeometry>
        </mxCell>
        <mxCell id="JEtd2y-85JAhfPTP1Umt-46" value="HaL" style="rounded=0;whiteSpace=wrap;html=1;" vertex="1" parent="1">
          <mxGeometry x="960" y="1290" width="120" height="60" as="geometry" />
        </mxCell>
        <mxCell id="JEtd2y-85JAhfPTP1Umt-47" value="LCD" style="swimlane;whiteSpace=wrap;html=1;" vertex="1" parent="1">
          <mxGeometry x="700" y="1230" width="180" height="130" as="geometry" />
        </mxCell>
        <mxCell id="JEtd2y-85JAhfPTP1Umt-48" value="&lt;div&gt;void LCD_Init&amp;nbsp; &amp;nbsp; &amp;nbsp; (void) ;&lt;/div&gt;&lt;div&gt;void LCD_WriteData (u8 Data) ;&lt;/div&gt;&lt;div&gt;void LCD_WriteCmd&amp;nbsp; (u8 Cmd)&amp;nbsp; ;&lt;/div&gt;&lt;div&gt;void LCD_DisplayStr (u8 str []) ;&lt;/div&gt;&lt;div&gt;void LCD_ClrDisplay (void) ;&lt;/div&gt;" style="text;html=1;align=left;verticalAlign=middle;resizable=0;points=[];autosize=1;strokeColor=none;fillColor=none;" vertex="1" parent="JEtd2y-85JAhfPTP1Umt-47">
          <mxGeometry x="5" y="20" width="200" height="90" as="geometry" />
        </mxCell>
        <mxCell id="JEtd2y-85JAhfPTP1Umt-49" value="KEYPAD" style="swimlane;whiteSpace=wrap;html=1;" vertex="1" parent="1">
          <mxGeometry x="695" y="1000" width="210" height="90" as="geometry" />
        </mxCell>
        <mxCell id="JEtd2y-85JAhfPTP1Umt-50" value="&lt;div&gt;void KP_Init (u8 PORT_Name) ;&lt;/div&gt;&lt;div&gt;u8 KP_GetVal (u8 PORT_Name) ;&lt;/div&gt;" style="text;html=1;align=left;verticalAlign=middle;resizable=0;points=[];autosize=1;strokeColor=none;fillColor=none;" vertex="1" parent="JEtd2y-85JAhfPTP1Umt-49">
          <mxGeometry y="40" width="210" height="40" as="geometry" />
        </mxCell>
        <mxCell id="JEtd2y-85JAhfPTP1Umt-51" value="SERVO" style="swimlane;whiteSpace=wrap;html=1;" vertex="1" parent="1">
          <mxGeometry x="700" y="780" width="200" height="90" as="geometry" />
        </mxCell>
        <mxCell id="JEtd2y-85JAhfPTP1Umt-52" value="&lt;div&gt;void Servo_Init (void) ;&lt;/div&gt;&lt;div&gt;void Servo_SetAngle (s8 Angle) ;&lt;/div&gt;" style="text;html=1;align=left;verticalAlign=middle;resizable=0;points=[];autosize=1;strokeColor=none;fillColor=none;" vertex="1" parent="JEtd2y-85JAhfPTP1Umt-51">
          <mxGeometry y="40" width="200" height="40" as="geometry" />
        </mxCell>
        <mxCell id="JEtd2y-85JAhfPTP1Umt-91" style="edgeStyle=orthogonalEdgeStyle;rounded=0;orthogonalLoop=1;jettySize=auto;html=1;exitX=0.5;exitY=0;exitDx=0;exitDy=0;entryX=1;entryY=0.25;entryDx=0;entryDy=0;" edge="1" parent="1" source="JEtd2y-85JAhfPTP1Umt-54" target="JEtd2y-85JAhfPTP1Umt-81">
          <mxGeometry relative="1" as="geometry" />
        </mxCell>
        <mxCell id="JEtd2y-85JAhfPTP1Umt-54" value="APP" style="rounded=0;whiteSpace=wrap;html=1;" vertex="1" parent="1">
          <mxGeometry x="490" y="1290" width="120" height="50" as="geometry" />
        </mxCell>
        <mxCell id="JEtd2y-85JAhfPTP1Umt-81" value="" style="rounded=1;whiteSpace=wrap;html=1;" vertex="1" parent="1">
          <mxGeometry x="190" y="1080" width="150" height="180" as="geometry" />
        </mxCell>
        <mxCell id="JEtd2y-85JAhfPTP1Umt-82" value="SeatController" style="text;strokeColor=none;align=center;fillColor=none;html=1;verticalAlign=middle;whiteSpace=wrap;rounded=0;" vertex="1" parent="1">
          <mxGeometry x="220" y="1080" width="60" height="30" as="geometry" />
        </mxCell>
        <mxCell id="JEtd2y-85JAhfPTP1Umt-83" value="-height_raw&lt;div&gt;-slide_raw&lt;/div&gt;&lt;div&gt;-incline_raw&lt;span style=&quot;background-color: transparent; color: light-dark(rgb(0, 0, 0), rgb(255, 255, 255));&quot;&gt;&amp;nbsp;&lt;/span&gt;&lt;/div&gt;&lt;div&gt;-slide_measured&lt;/div&gt;&lt;div&gt;-incline_measured&lt;/div&gt;" style="text;strokeColor=none;align=left;fillColor=none;html=1;verticalAlign=middle;whiteSpace=wrap;rounded=0;" vertex="1" parent="1">
          <mxGeometry x="190" y="1140" width="300" height="30" as="geometry" />
        </mxCell>
        <mxCell id="JEtd2y-85JAhfPTP1Umt-84" value="" style="endArrow=none;html=1;rounded=0;exitX=0.999;exitY=0.17;exitDx=0;exitDy=0;exitPerimeter=0;" edge="1" parent="1" source="JEtd2y-85JAhfPTP1Umt-81">
          <mxGeometry width="50" height="50" relative="1" as="geometry">
            <mxPoint x="295" y="1110" as="sourcePoint" />
            <mxPoint x="190" y="1109" as="targetPoint" />
          </mxGeometry>
        </mxCell>
        <mxCell id="JEtd2y-85JAhfPTP1Umt-85" value="" style="endArrow=none;html=1;rounded=0;exitX=0;exitY=0.636;exitDx=0;exitDy=0;exitPerimeter=0;entryX=1.001;entryY=0.636;entryDx=0;entryDy=0;entryPerimeter=0;" edge="1" parent="1" source="JEtd2y-85JAhfPTP1Umt-81" target="JEtd2y-85JAhfPTP1Umt-81">
          <mxGeometry width="50" height="50" relative="1" as="geometry">
            <mxPoint x="190" y="1198" as="sourcePoint" />
            <mxPoint x="339" y="1197" as="targetPoint" />
          </mxGeometry>
        </mxCell>
        <mxCell id="JEtd2y-85JAhfPTP1Umt-86" value="-processInput()&lt;div&gt;-calculatePhysicalValues()&lt;/div&gt;&lt;div&gt;-storeProfile()&lt;/div&gt;&lt;div&gt;-recallProfile()&lt;/div&gt;" style="text;strokeColor=none;align=left;fillColor=none;html=1;verticalAlign=middle;whiteSpace=wrap;rounded=0;" vertex="1" parent="1">
          <mxGeometry x="190" y="1210" width="300" height="30" as="geometry" />
        </mxCell>
      </root>
    </mxGraphModel>
  </diagram>
</mxfile>
